<svg width="1264" height="196" viewBox="0 0 1264 196" fill="none" xmlns="http://www.w3.org/2000/svg">
<g clip-path="url(#clip0)">
<path d="M214.332 36.6055V68.2108C214.332 81.2303 215.05 90.3817 216.485 95.665V98.5897H193.646V95.665C195.081 90.3817 195.798 81.2303 195.798 68.2108V35.2847C195.798 23.02 195.081 14.246 193.646 8.9627V6.13237H216.485V8.9627C215.861 11.0383 215.362 15.2838 214.987 21.6992C214.55 28.1775 214.332 33.1462 214.332 36.6055ZM283.131 32.6431C289.683 32.6431 294.769 34.6872 298.388 38.7754C301.945 42.8637 303.723 48.7759 303.723 56.5122V73.3054C303.723 82.048 305.034 89.5012 307.655 95.665V98.5897H284.628V95.665C286.126 91.5138 286.875 85.5702 286.875 77.8339V61.3237C286.875 56.2291 286.251 52.4554 285.003 50.0024C283.755 47.6124 281.134 46.4173 277.14 46.4173C273.146 46.4173 268.029 48.2413 261.789 51.8893V73.5885C261.789 82.8342 263.068 90.193 265.627 95.665V98.5897H242.694V95.665C244.192 91.1365 244.94 84.8783 244.94 76.8905V59.1538C244.94 48.713 242.319 42.1718 237.078 39.5302V36.6055L258.232 32.5487L259.73 35.0017C260.416 37.1402 260.884 39.9705 261.134 43.4927C265.627 39.8447 269.496 37.1402 272.741 35.3791C276.048 33.5551 279.511 32.6431 283.131 32.6431ZM336.672 33.3035V34.9073C336.672 36.9829 338.45 43.587 342.007 54.7196L349.964 77.9283L358.95 49.5307C360.51 44.8135 361.29 40.285 361.29 35.9451V34.3413H380.01V37.2659C377.452 38.9641 374.956 43.2725 372.522 50.1911L357.639 92.646L355.767 99.4388L339.761 100.005L337.421 92.3629L321.789 49.7194C320.853 47.0777 319.605 44.5619 318.045 42.1718C316.485 39.7818 315.174 38.3666 314.113 37.9264V35.0017L336.672 33.3035ZM406.875 3.01901L408.279 3.86811C409.09 4.55997 409.652 6.03803 409.964 8.30229C410.276 10.6294 410.432 12.3905 410.432 13.5856C410.432 14.8435 410.338 15.9442 410.151 16.8876L408.934 18.0197C405.127 19.1519 400.104 19.9381 393.864 20.3783L392.46 19.7179C391.773 18.5858 391.212 16.6989 390.775 14.0573C390.4 11.4156 390.213 9.56021 390.213 8.49098C390.213 7.48464 390.213 6.82423 390.213 6.50975L391.43 5.47196C396.11 3.83666 400.79 3.01901 405.471 3.01901H406.875ZM410.806 46.606V74.9093C410.806 83.2744 412.085 90.193 414.644 95.665V98.5897H391.711V95.665C393.146 91.1365 393.864 85.1928 393.864 77.8339V58.3047C393.864 53.4617 393.146 49.4049 391.711 46.1343C390.213 42.9266 388.31 40.7252 386.001 39.5302V36.6055L410.057 32.077L411.555 34.7187C411.056 36.7942 410.806 40.7567 410.806 46.606ZM473.614 32.6431C480.166 32.6431 485.221 34.6872 488.778 38.7754C492.335 42.8637 494.113 48.7759 494.113 56.5122V73.3054C494.113 82.048 495.424 89.5012 498.045 95.665V98.5897H475.018V95.665C476.516 91.5138 477.265 85.5702 477.265 77.8339V61.3237C477.265 56.2291 476.641 52.4554 475.392 50.0024C474.207 47.6124 471.586 46.4173 467.53 46.4173C463.536 46.4173 458.419 48.2413 452.179 51.8893V73.5885C452.179 82.8342 453.458 90.193 456.017 95.665V98.5897H433.084V95.665C434.581 91.1365 435.33 84.8783 435.33 76.8905V59.1538C435.33 48.713 432.709 42.1718 427.467 39.5302V36.6055L448.715 32.5487L450.12 35.0017C450.806 37.1402 451.274 39.9705 451.524 43.4927C456.017 39.8447 459.885 37.1402 463.13 35.3791C466.438 33.5551 469.932 32.6431 473.614 32.6431ZM529.963 66.0409C529.963 81.4505 534.394 89.1552 543.255 89.1552C549.558 89.1552 557.826 86.4821 568.06 81.136L571.43 86.5136C567.935 89.7842 563.349 92.9919 557.67 96.1367C551.929 99.3444 547.062 100.948 543.068 100.948C533.146 100.948 525.346 97.8664 519.667 91.7025C513.926 85.6016 511.055 77.5509 511.055 67.5504C511.055 57.5499 514.675 49.2477 521.914 42.6436C529.152 35.9766 537.452 32.6431 546.812 32.6431C556.172 32.6431 564.222 34.8759 570.962 39.3415C567.966 44.3732 565.158 48.3042 562.537 51.1345C555.486 45.6626 548.715 42.9266 542.226 42.9266C540.603 42.9266 539.137 43.0524 537.826 43.304C535.517 45.4424 533.614 48.5243 532.116 52.5497C530.681 56.6379 529.963 61.135 529.963 66.0409ZM603.349 3.01901L604.753 3.86811C605.564 4.55997 606.126 6.03803 606.438 8.30229C606.687 10.6294 606.812 12.3905 606.812 13.5856C606.812 14.8435 606.75 15.9442 606.625 16.8876L605.408 18.0197C601.539 19.1519 596.516 19.9381 590.338 20.3783L588.934 19.7179C588.185 18.5858 587.623 16.6989 587.249 14.0573C586.874 11.4156 586.687 9.56021 586.687 8.49098C586.687 7.48464 586.687 6.82423 586.687 6.50975L587.81 5.47196C592.553 3.83666 597.233 3.01901 601.851 3.01901H603.349ZM607.28 46.606V74.9093C607.28 83.2744 608.528 90.193 611.024 95.665V98.5897H588.091V95.665C589.589 91.1365 590.338 85.1928 590.338 77.8339V58.3047C590.338 53.4617 589.589 49.4049 588.091 46.1343C586.594 42.9266 584.722 40.7252 582.475 39.5302V36.6055L606.438 32.077L608.029 34.7187C607.53 36.7942 607.28 40.7567 607.28 46.606ZM646.687 48.5872V87.8344C652.865 90.0358 657.92 91.1365 661.851 91.1365C665.782 91.1365 668.341 90.6962 669.526 89.8156C670.837 88.1803 672.054 84.8154 673.177 79.7208C674.3 74.6891 674.862 69.6889 674.862 64.7201C674.862 49.8766 671.274 42.4549 664.097 42.4549C659.48 42.4549 653.676 44.499 646.687 48.5872ZM646.687 13.7743V39.5302C652.553 34.9388 658.575 32.6431 664.753 32.6431C673.739 32.6431 680.821 35.5992 686.001 41.5114C691.18 47.4866 693.77 54.7825 693.77 63.3993C693.77 74.0916 689.901 83.0229 682.163 90.193C674.487 97.4261 665.377 101.043 654.831 101.043C648.029 101.043 639.199 98.967 628.341 94.8159V91.9856C629.277 89.4697 629.745 83.6518 629.745 74.5319V23.303C629.745 16.5731 627.779 11.3213 623.848 7.54754V4.62286L646.313 0L647.342 2.92467C646.906 5.31472 646.687 8.93125 646.687 13.7743ZM727.654 0L729.246 2.92467C728.871 7.13871 728.684 12.1704 728.684 18.0197C728.684 23.8062 728.746 27.3598 728.871 28.6806V76.5131C728.871 84.6896 729.558 91.0736 730.93 95.665L731.118 98.5897H709.87V95.665C711.242 91.0736 711.929 84.6896 711.929 76.5131V24.6238C711.929 17.0134 709.963 11.3213 706.032 7.54754V4.62286L727.654 0ZM773.707 101.043C766.094 101.043 759.261 98.1808 753.208 92.4573C747.217 86.7337 744.222 78.9975 744.222 69.2486C744.222 59.5626 747.405 51.0402 753.77 43.6814C760.135 36.3225 768.372 32.6431 778.481 32.6431C787.093 32.6431 793.489 35.4105 797.67 40.9454C801.851 46.4802 803.941 54.1536 803.941 63.9653L798.98 69.0599H763.036C763.161 75.4124 764.846 80.3183 768.091 83.7776C771.398 87.174 775.33 88.8722 779.885 88.8722C784.503 88.8722 791.43 86.4507 800.665 81.6077L803.941 86.7023C802.256 88.2747 800.384 89.8785 798.325 91.5138C796.203 93.212 792.678 95.2247 787.748 97.5519C782.818 99.879 778.138 101.043 773.707 101.043ZM775.486 41.1341C772.241 41.1341 769.682 41.7945 767.81 43.1153C766.375 45.3166 765.283 48.2099 764.534 51.7949C763.723 55.38 763.286 58.5877 763.224 61.4181L786.157 60.0972C786.157 47.4551 782.6 41.1341 775.486 41.1341ZM863.567 6.32106L885.47 6.13237C897.763 6.13237 907.124 8.0507 913.551 11.8874C919.978 15.7869 923.192 22.5168 923.192 32.077C923.192 41.6372 919.448 49.1219 911.96 54.5309C904.409 59.94 894.862 62.6445 883.317 62.6445C880.197 62.6445 877.108 62.33 874.05 61.7011V78.9661C874.05 85.5073 874.924 91.0736 876.671 95.665V98.5897H852.802V95.665C854.55 90.6333 855.423 84.4695 855.423 77.1735V29.7184C855.423 20.913 854.674 13.9944 853.177 8.9627V6.13237C859.167 6.25816 862.631 6.32106 863.567 6.32106ZM903.535 33.3978C903.535 26.7308 902.1 21.9507 899.23 19.0575C896.359 16.1643 891.741 14.7177 885.376 14.7177C879.074 14.7177 875.392 14.7491 874.331 14.812C874.144 17.4537 874.05 24.7496 874.05 36.6999V53.6818C876.858 54.4366 879.916 54.814 883.223 54.814C889.838 54.814 894.893 52.9271 898.387 49.1533C901.819 45.3795 903.535 40.1277 903.535 33.3978ZM959.51 101.043C951.897 101.043 945.064 98.1808 939.011 92.4573C933.021 86.7337 930.025 78.9975 930.025 69.2486C930.025 59.5626 933.208 51.0402 939.573 43.6814C945.938 36.3225 954.206 32.6431 964.378 32.6431C972.927 32.6431 979.292 35.4105 983.473 40.9454C987.654 46.4802 989.744 54.1536 989.744 63.9653L984.783 69.0599H948.84C948.964 75.4124 950.649 80.3183 953.894 83.7776C957.202 87.174 961.133 88.8722 965.688 88.8722C970.306 88.8722 977.233 86.4507 986.468 81.6077L989.744 86.7023C988.122 88.2747 986.25 89.8785 984.128 91.5138C982.007 93.212 978.481 95.2247 973.551 97.5519C968.621 99.879 963.941 101.043 959.51 101.043ZM961.289 41.1341C958.106 41.1341 955.548 41.7945 953.613 43.1153C952.178 45.3166 951.086 48.2099 950.337 51.7949C949.526 55.38 949.089 58.5877 949.027 61.4181L971.96 60.0972C971.96 47.4551 968.403 41.1341 961.289 41.1341ZM1033.46 101.043C1023.29 101.043 1015.3 98.055 1009.49 92.0799C1003.69 86.1048 1000.79 78.2113 1000.79 68.3995C1000.79 58.6506 1004.16 50.2854 1010.9 43.304C1017.58 36.2596 1026.16 32.7374 1036.64 32.7374C1047.06 32.7374 1055.05 35.6621 1060.6 41.5114C1066.16 47.4237 1068.93 55.2857 1068.93 65.0975C1068.93 74.9722 1065.56 83.4317 1058.82 90.4761C1052.08 97.5204 1043.63 101.043 1033.46 101.043ZM1050.03 68.3995C1050.03 59.9085 1048.81 53.2416 1046.37 48.3986C1043.94 43.6185 1039.67 41.2284 1033.55 41.2284C1029.62 41.2284 1026.56 42.2033 1024.38 44.1531C1022.94 46.1657 1021.79 49.1848 1020.91 53.2101C1020.04 57.2984 1019.6 61.2294 1019.6 65.0031C1019.6 83.4317 1025.44 92.646 1037.11 92.646C1040.6 92.646 1043.44 91.7025 1045.63 89.8156C1047.06 87.803 1048.15 84.7211 1048.9 80.5699C1049.65 76.3559 1050.03 72.2991 1050.03 68.3995ZM1120.79 90.7591C1122.91 90.7591 1124.85 90.539 1126.59 90.0987C1128.65 87.457 1130.21 83.6833 1131.27 78.7774C1132.33 73.9344 1132.86 69.5316 1132.86 65.5692C1132.86 51.6063 1129.25 44.6248 1122.01 44.6248C1116.76 44.6248 1110.99 46.606 1104.69 50.5685V86.7023C1110.37 89.4068 1115.73 90.7591 1120.79 90.7591ZM1087.75 110.477V58.399C1087.75 54.4995 1087.19 50.8201 1086.06 47.3608C1084.88 43.9015 1083.32 41.6372 1081.38 40.568L1081.1 37.6433L1102.44 32.5487L1104.03 35.0017C1103.85 36.3225 1103.75 38.4924 1103.75 41.5114C1109.62 35.5992 1115.73 32.6431 1122.1 32.6431C1130.96 32.6431 1138.11 35.5992 1143.54 41.5114C1149.03 47.4237 1151.77 54.5938 1151.77 63.0219C1151.77 73.5256 1148.09 82.4568 1140.73 89.8156C1133.36 97.2374 1125.03 100.948 1115.73 100.948C1111.93 100.948 1108.25 100.539 1104.69 99.7218V103.307C1104.69 113.811 1106.44 121.044 1109.93 125.006V127.836L1087.28 130.667C1087.59 126.075 1087.75 119.345 1087.75 110.477ZM1185.84 0L1187.34 2.92467C1187.03 7.13871 1186.87 12.1704 1186.87 18.0197C1186.87 23.8062 1186.9 27.3598 1186.97 28.6806V76.5131C1186.97 84.6896 1187.68 91.0736 1189.12 95.665L1189.21 98.5897H1167.97V95.665C1169.4 91.0736 1170.12 84.6896 1170.12 76.5131V24.6238C1170.12 17.0134 1168.15 11.3213 1164.22 7.54754V4.62286L1185.84 0ZM1231.8 101.043C1224.19 101.043 1217.39 98.1808 1211.4 92.4573C1205.34 86.7337 1202.32 78.9975 1202.32 69.2486C1202.32 59.5626 1205.5 51.0402 1211.87 43.6814C1218.23 36.3225 1226.5 32.6431 1236.67 32.6431C1245.22 32.6431 1251.59 35.4105 1255.77 40.9454C1259.95 46.4802 1262.04 54.1536 1262.04 63.9653L1257.08 69.0599H1221.23C1221.29 75.4124 1222.97 80.3183 1226.28 83.7776C1229.53 87.174 1233.46 88.8722 1238.07 88.8722C1242.63 88.8722 1249.53 86.4507 1258.76 81.6077L1262.04 86.7023C1260.41 88.2747 1258.54 89.8785 1256.42 91.5138C1254.36 93.212 1250.87 95.2247 1245.94 97.5519C1240.95 99.879 1236.23 101.043 1231.8 101.043ZM1233.68 41.1341C1230.43 41.1341 1227.84 41.7945 1225.91 43.1153C1224.53 45.3166 1223.44 48.2099 1222.63 51.7949C1221.82 55.38 1221.38 58.5877 1221.32 61.4181L1244.25 60.0972C1244.25 47.4551 1240.73 41.1341 1233.68 41.1341Z" fill="black"/>
<path d="M76.7043 1.08889C35.2291 1.08889 1.48834 35.0966 1.48834 76.8999C1.48834 118.015 72.3601 193.327 75.3761 196.519C75.548 196.699 75.7542 196.842 75.9825 196.94C76.2107 197.038 76.4562 197.089 76.7043 197.089C76.9524 197.089 77.1979 197.038 77.4262 196.94C77.6544 196.842 77.8606 196.699 78.0325 196.519C81.0485 193.327 151.92 118.015 151.92 76.8999C151.92 35.0966 118.179 1.08889 76.7043 1.08889ZM76.7043 192.539C66.8125 181.819 5.15741 113.544 5.15741 76.8999C5.15741 37.138 37.2544 4.78699 76.7043 4.78699C116.154 4.78699 148.251 37.138 148.251 76.8999C148.251 113.544 86.5961 181.819 76.7043 192.539V192.539Z" fill="url(#paint0_linear)"/>
<path d="M106.409 61.5565C107.383 59.4077 107.888 57.0736 107.891 54.7113C107.887 50.6038 106.377 46.6427 103.652 43.5883C100.927 40.534 97.179 38.6017 93.1271 38.1623C92.6904 34.0777 90.7726 30.2994 87.7417 27.5523C84.7109 24.8053 80.7804 23.283 76.7043 23.2775C72.6284 23.2823 68.6979 24.8044 65.6675 27.5517C62.6371 30.2989 60.7203 34.0777 60.2852 38.1623C56.2326 38.6009 52.4835 40.5328 49.7579 43.5872C47.0322 46.6416 45.522 50.6032 45.5172 54.7113C45.5172 57.0744 46.0235 59.4005 46.9995 61.5565C42.2775 63.1555 38.1752 66.2128 35.2747 70.2947C32.3741 74.3765 30.8228 79.2754 30.8409 84.2961C30.8409 97.5501 41.5399 108.334 54.6899 108.334H74.8698V143.466C74.8698 143.956 75.0631 144.426 75.4071 144.773C75.7511 145.12 76.2178 145.315 76.7043 145.315C77.1909 145.315 77.6575 145.12 78.0015 144.773C78.3456 144.426 78.5389 143.956 78.5389 143.466V108.334H98.7187C111.869 108.334 122.568 97.5501 122.568 84.2961C122.586 79.2754 121.034 74.3765 118.134 70.2947C115.233 66.2128 111.131 63.1555 106.409 61.5565V61.5565ZM98.7187 104.636H54.6899C49.3396 104.63 44.2102 102.485 40.427 98.6719C36.6438 94.8587 34.5158 89.6887 34.51 84.2961C34.4948 79.7005 36.032 75.2365 38.8688 71.6386C41.7056 68.0406 45.673 65.5231 50.1182 64.5002C50.4045 64.4333 50.6707 64.2981 50.8943 64.1059C51.118 63.9137 51.2925 63.6701 51.4033 63.3957C51.5141 63.1214 51.5578 62.8242 51.5308 62.5292C51.5038 62.2342 51.4069 61.9501 51.2483 61.7007C49.9083 59.6193 49.1924 57.1925 49.1863 54.7113C49.1863 47.574 54.9467 41.768 62.028 41.768C62.5146 41.768 62.9812 41.5732 63.3252 41.2264C63.6693 40.8796 63.8626 40.4093 63.8626 39.9189C63.8626 32.7816 69.623 26.9756 76.7043 26.9756C83.7856 26.9756 89.5461 32.7816 89.5461 39.9189C89.5461 40.4093 89.7393 40.8796 90.0834 41.2264C90.4274 41.5732 90.8941 41.768 91.3806 41.768C98.4619 41.768 104.222 47.574 104.222 54.7113C104.222 57.1706 103.511 59.5854 102.16 61.7007C102 61.9497 101.902 62.234 101.874 62.5295C101.846 62.825 101.889 63.1229 102 63.3978C102.111 63.6728 102.287 63.9166 102.511 64.1085C102.736 64.3005 103.003 64.4348 103.29 64.5002C107.736 65.5231 111.703 68.0406 114.54 71.6386C117.377 75.2365 118.914 79.7005 118.899 84.2961C118.899 95.5125 109.843 104.636 98.7187 104.636Z" fill="url(#paint1_linear)"/>
<path d="M199.919 131.646L208.754 131.557C214.056 131.557 218.164 132.359 221.08 133.962C223.996 135.594 225.454 138.325 225.454 142.155C225.454 146.014 224.276 149.101 221.92 151.417C219.563 153.762 216.427 155.112 212.51 155.469L219.578 163.751C222.582 167.283 224.894 169.717 226.514 171.053C228.163 172.389 229.636 173.265 230.932 173.68V175.194H220.108C219.549 174.304 218.135 172.404 215.867 169.495L204.734 155.869C204.234 155.869 203.88 155.84 203.674 155.78V164.463C203.674 168.53 203.998 171.647 204.646 173.814V175.194H193.646V173.814C194.47 171.647 194.883 168.738 194.883 165.086V142.689C194.883 138.533 194.529 135.268 193.822 132.893V131.557C195 131.617 197.033 131.646 199.919 131.646ZM216.309 143.268C216.309 140.359 215.676 138.355 214.409 137.257C213.143 136.158 211.184 135.609 208.534 135.609C205.883 135.609 204.307 135.624 203.807 135.654C203.718 136.901 203.674 142.303 203.674 151.862C204.616 151.981 205.795 152.04 207.208 152.04C210.507 152.04 212.848 151.298 214.233 149.814C215.617 148.359 216.309 146.177 216.309 143.268ZM251.431 135.965C249.722 135.965 248.397 136.01 247.454 136.099C247.366 137.999 247.322 142.674 247.322 150.125L263.226 149.814L261.061 154.979H259.913C258.322 154.652 256.025 154.489 253.021 154.489C249.987 154.489 248.088 154.533 247.322 154.623V157.918C247.322 164.894 247.396 169.064 247.543 170.43C248.485 170.519 250.061 170.563 252.27 170.563C254.479 170.563 257.129 170.37 260.222 169.985C263.314 169.628 265.582 169.153 267.025 168.56H268.174L267.025 175.194H237.382V173.814C238.089 170.816 238.442 166.63 238.442 161.257V145.494C238.442 140.092 238.089 135.891 237.382 132.893V131.557L266.142 131.335L264.286 136.856H263.094C261.091 136.262 257.203 135.965 251.431 135.965ZM281.648 131.646L292.251 131.557C297.111 131.557 300.822 132.21 303.384 133.516C305.946 134.852 307.227 137.183 307.227 140.507C307.227 142.763 306.653 144.693 305.505 146.296C304.385 147.929 302.972 149.16 301.263 149.992C303.296 150.496 305.21 151.52 307.007 153.064C309.215 154.875 310.32 157.502 310.32 160.945C310.32 164.359 309.466 167.135 307.758 169.272C306.079 171.38 303.929 172.909 301.308 173.858C298.686 174.808 295.402 175.283 291.456 175.283C285.006 175.135 281.707 175.061 281.56 175.061L276.612 175.194V173.725C277.437 171.706 277.849 168.797 277.849 164.997V142.244C277.849 138.177 277.496 135.06 276.789 132.893V131.557C277.937 131.617 279.557 131.646 281.648 131.646ZM288.761 152.93H286.596C286.596 162.845 286.67 168.812 286.817 170.831C288.466 171.068 289.718 171.187 290.572 171.187C293.694 171.187 296.212 170.341 298.127 168.649C300.071 166.927 301.043 164.641 301.043 161.791C301.043 155.884 296.949 152.93 288.761 152.93ZM298.745 142.244C298.745 139.75 298.127 137.984 296.89 136.945C295.653 135.906 293.915 135.387 291.677 135.387C289.409 135.387 287.745 135.461 286.685 135.609C286.626 136.173 286.596 140.671 286.596 149.101H290.837C296.109 149.101 298.745 146.815 298.745 142.244ZM333.293 135.965C331.614 135.965 330.303 136.01 329.361 136.099C329.272 137.999 329.228 142.674 329.228 150.125L345.132 149.814L342.968 154.979H341.775C340.214 154.652 337.916 154.489 334.883 154.489C331.849 154.489 329.964 154.533 329.228 154.623V157.918C329.228 164.894 329.287 169.064 329.405 170.43C330.347 170.519 331.923 170.563 334.132 170.563C336.341 170.563 338.992 170.37 342.084 169.985C345.176 169.628 347.444 169.153 348.887 168.56H350.08L348.887 175.194H319.288V173.814C319.965 170.816 320.304 166.63 320.304 161.257V145.494C320.304 140.092 319.965 135.891 319.288 132.893V131.557L348.048 131.335L346.193 136.856H345C342.968 136.262 339.065 135.965 333.293 135.965ZM388.029 175.194H358.474V173.814C359.151 170.934 359.49 166.823 359.49 161.48V145.316C359.49 139.528 359.151 135.387 358.474 132.893V131.557H369.253V132.893C368.959 133.873 368.723 135.832 368.547 138.771C368.34 141.71 368.237 143.951 368.237 145.494V162.148C368.237 165.176 368.37 167.936 368.635 170.43C369.401 170.519 371.021 170.563 373.495 170.563C380.033 170.563 384.863 169.895 387.985 168.56H389.178L388.029 175.194ZM404.375 145.94V160.856C404.375 167.001 404.699 171.32 405.347 173.814V175.194H394.612V173.814C395.26 171.32 395.584 167.001 395.584 160.856V145.316C395.584 139.528 395.26 135.387 394.612 132.893V131.557H405.347V132.893C405.082 133.873 404.846 135.876 404.64 138.904C404.463 141.962 404.375 144.307 404.375 145.94ZM424.962 173.814V175.194H416.48V173.814C417.157 171.32 417.496 166.6 417.496 159.654V147.008C417.496 140.804 417.231 136.129 416.701 132.982V131.602L426.464 130.934L448.244 161.702V145.316C448.244 143.209 448.097 140.863 447.802 138.281C447.508 135.728 447.169 133.932 446.786 132.893V131.557H455.533V132.893C455.268 133.932 455.033 135.965 454.826 138.993C454.62 141.992 454.517 144.678 454.517 147.053V161.881C454.517 164.315 454.65 166.957 454.915 169.806C455.15 172.686 455.357 174.437 455.533 175.061L447.405 175.862L423.813 142.511V161.48C423.813 166.704 424.196 170.816 424.962 173.814ZM503.025 158.719H501.611C501.611 164.211 501.729 167.966 501.964 169.985C499.579 171.498 496.707 172.864 493.35 174.081C489.992 175.298 486.723 175.907 483.542 175.907C477.563 175.907 472.527 173.903 468.433 169.895C464.369 165.858 462.337 160.619 462.337 154.177C462.337 147.765 464.56 142.274 469.008 137.702C473.455 133.101 479.007 130.8 485.663 130.8C491.553 130.8 497.017 132.626 502.053 136.277C500.256 138.236 497.65 140.196 494.233 142.155C492.967 140.403 491.214 138.919 488.976 137.702C486.767 136.515 484.514 135.921 482.217 135.921C479.92 135.921 478.314 136.04 477.401 136.277C473.573 139.602 471.658 144.945 471.658 152.307C471.658 158.333 472.748 162.875 474.928 165.933C477.136 168.99 480.73 170.519 485.707 170.519C488.21 170.519 490.463 170.177 492.466 169.495C493.026 166.467 493.306 162.934 493.306 158.897H485.088L488.225 153.91C492.201 154.207 495.573 154.355 498.342 154.355C501.081 154.355 503.363 154.311 505.189 154.222L503.025 158.719ZM552.637 137.479H551.444C549.147 136.797 546.437 136.455 543.315 136.455C540.193 136.455 538.161 136.5 537.219 136.589C537.101 137.806 537.042 142.392 537.042 150.348L551.267 150.036L548.97 155.914H547.821C545.819 155.498 543.713 155.29 541.504 155.29C539.266 155.29 537.778 155.335 537.042 155.424V161.213C537.042 167.12 537.366 171.32 538.014 173.814V175.194H527.19V173.814C527.897 170.816 528.25 166.63 528.25 161.257V145.494C528.25 140.092 527.897 135.891 527.19 132.893V131.557L554.404 131.335L552.637 137.479ZM580.204 175.907C573.607 175.907 568.349 173.814 564.432 169.628C560.486 165.443 558.512 160.129 558.512 153.687C558.512 147.275 560.721 141.828 565.139 137.346C569.528 132.893 575.153 130.667 582.015 130.667C588.848 130.667 594.12 132.745 597.831 136.901C601.542 141.056 603.397 146.162 603.397 152.218C603.397 159.075 601.188 164.745 596.771 169.228C592.323 173.68 586.801 175.907 580.204 175.907ZM594.076 153.91C594.076 150.467 593.678 147.454 592.883 144.871C592.058 142.288 590.571 140.136 588.421 138.414C586.3 136.693 583.547 135.832 580.16 135.832C578.628 135.832 577.082 136.01 575.521 136.366C573.96 136.722 572.826 137.108 572.119 137.524C570.882 138.8 569.852 140.774 569.027 143.446C568.232 146.118 567.834 148.908 567.834 151.817C567.834 154.756 568.099 157.279 568.629 159.387C569.13 161.465 569.925 163.394 571.015 165.176C572.105 166.927 573.621 168.322 575.565 169.361C577.509 170.37 579.85 170.875 582.59 170.875C585.329 170.875 587.729 170.296 589.791 169.139C592.647 166.378 594.076 161.302 594.076 153.91ZM619.346 131.646L628.225 131.557C633.527 131.557 637.635 132.359 640.551 133.962C643.467 135.594 644.925 138.325 644.925 142.155C644.925 146.014 643.747 149.101 641.391 151.417C639.034 153.762 635.898 155.112 631.981 155.469L639.049 163.751C642.053 167.283 644.365 169.717 645.985 171.053C647.605 172.389 649.078 173.265 650.403 173.68V175.194H639.579C639.02 174.304 637.606 172.404 635.338 169.495L624.205 155.869C623.705 155.869 623.351 155.84 623.145 155.78V164.463C623.145 168.53 623.469 171.647 624.117 173.814V175.194H613.117V173.814C613.941 171.647 614.354 168.738 614.354 165.086V142.689C614.354 138.533 614 135.268 613.293 132.893V131.557C614.442 131.617 616.459 131.646 619.346 131.646ZM635.736 143.268C635.736 140.359 635.117 138.355 633.88 137.257C632.614 136.158 630.655 135.609 628.005 135.609C625.324 135.609 623.749 135.624 623.278 135.654C623.189 136.901 623.145 142.303 623.145 151.862C624.087 151.981 625.266 152.04 626.679 152.04C629.978 152.04 632.319 151.298 633.704 149.814C635.058 148.359 635.736 146.177 635.736 143.268ZM664.628 137.702H663.48C663.48 135.832 663.377 133.709 663.17 131.335C671.211 131.483 677.219 131.557 681.195 131.557C685.201 131.557 691.223 131.483 699.264 131.335C699.058 133.709 698.955 135.832 698.955 137.702H697.806C693.123 136.633 689.118 136.04 685.79 135.921C685.613 137.999 685.524 141.116 685.524 145.272V161.569C685.524 167.239 685.863 171.32 686.541 173.814V175.194H675.894V173.814C676.483 171.32 676.777 167.313 676.777 161.791V145.494C676.777 141.22 676.689 138.029 676.512 135.921C673.42 136.04 669.458 136.633 664.628 137.702ZM742.072 145.45V161.257C742.072 167.253 742.382 171.439 743 173.814V175.194H732.353V173.814C732.618 172.864 732.839 170.934 733.016 168.025C733.193 165.146 733.281 162.964 733.281 161.48V155.558C728.657 155.469 724.99 155.424 722.281 155.424C719.571 155.424 717.053 155.439 714.726 155.469V161.48C714.726 162.934 714.829 165.116 715.035 168.025C715.212 170.934 715.404 172.864 715.61 173.814V175.194H705.007V173.814C705.626 171.439 705.935 167.253 705.935 161.257V145.45C705.935 139.453 705.626 135.268 705.007 132.893V131.557H715.61V132.893C715.404 133.873 715.212 135.817 715.035 138.726C714.829 141.635 714.726 143.832 714.726 145.316V150.036H733.281V145.316C733.281 143.773 733.193 141.561 733.016 138.682C732.839 135.802 732.618 133.873 732.353 132.893V131.557H743V132.893C742.382 135.268 742.072 139.453 742.072 145.45ZM770.391 135.965C768.712 135.965 767.401 136.01 766.459 136.099C766.37 137.999 766.326 142.674 766.326 150.125L782.23 149.814L780.066 154.979H778.873C777.312 154.652 775.015 154.489 771.981 154.489C768.947 154.489 767.063 154.533 766.326 154.623V157.918C766.326 164.894 766.385 169.064 766.503 170.43C767.445 170.519 769.021 170.563 771.23 170.563C773.439 170.563 776.09 170.37 779.182 169.985C782.275 169.628 784.542 169.153 785.985 168.56H787.178L785.985 175.194H756.342V173.814C757.049 170.816 757.402 166.63 757.402 161.257V145.494C757.402 140.092 757.049 135.891 756.342 132.893V131.557L785.102 131.335L783.246 136.856H782.098C780.066 136.262 776.163 135.965 770.391 135.965ZM834.891 137.479H833.742C831.415 136.797 828.706 136.455 825.613 136.455C822.491 136.455 820.459 136.5 819.517 136.589C819.399 137.806 819.34 142.392 819.34 150.348L833.565 150.036L831.268 155.914H830.075C828.102 155.498 825.996 155.29 823.758 155.29C821.549 155.29 820.076 155.335 819.34 155.424V161.213C819.34 167.12 819.664 171.32 820.312 173.814V175.194H809.488V173.814C810.195 170.816 810.548 166.63 810.548 161.257V145.494C810.548 140.092 810.195 135.891 809.488 132.893V131.557L836.702 131.335L834.891 137.479ZM879.555 144.559V155.736C879.555 163.305 878.185 168.545 875.446 171.454C872.707 174.393 868.098 175.862 861.618 175.862C855.139 175.862 850.456 174.437 847.57 171.588C844.683 168.738 843.24 164.181 843.24 157.918V145.583C843.24 139.379 842.916 135.149 842.268 132.893V131.557H852.915V132.893C852.326 136.633 852.032 141.487 852.032 147.454V155.112C852.032 159.298 852.297 162.281 852.827 164.062C853.328 165.873 853.946 167.164 854.682 167.936C856.391 169.806 858.982 170.741 862.458 170.741C865.933 170.741 868.525 170.207 870.233 169.139C871.293 167.506 871.971 165.279 872.265 162.459C872.56 159.639 872.707 154.845 872.707 148.077C872.707 141.338 872.368 136.277 871.691 132.893V131.557H880.571V132.849C880.276 133.798 880.041 135.609 879.864 138.281C879.658 140.982 879.555 143.075 879.555 144.559ZM885.872 137.702H884.679C884.679 135.832 884.576 133.709 884.37 131.335C892.411 131.483 898.433 131.557 902.439 131.557C906.444 131.557 912.467 131.483 920.508 131.335C920.302 133.709 920.199 135.832 920.199 137.702H919.006C914.352 136.633 910.362 136.04 907.033 135.921C906.857 137.999 906.768 141.116 906.768 145.272V161.569C906.768 167.239 907.107 171.32 907.785 173.814V175.194H897.138V173.814C897.697 171.32 897.977 167.313 897.977 161.791V145.494C897.977 141.22 897.903 138.029 897.756 135.921C894.664 136.04 890.702 136.633 885.872 137.702ZM961.372 144.559V155.736C961.372 163.305 960.003 168.545 957.264 171.454C954.525 174.393 949.916 175.862 943.436 175.862C936.986 175.862 932.318 174.437 929.432 171.588C926.545 168.738 925.102 164.181 925.102 157.918V145.583C925.102 139.379 924.764 135.149 924.086 132.893V131.557H934.733V132.893C934.144 136.633 933.85 141.487 933.85 147.454V155.112C933.85 159.298 934.115 162.281 934.645 164.062C935.145 165.873 935.779 167.164 936.544 167.936C938.223 169.806 940.8 170.741 944.276 170.741C947.78 170.741 950.372 170.207 952.051 169.139C953.111 167.506 953.789 165.279 954.083 162.459C954.378 159.639 954.525 154.845 954.525 148.077C954.525 141.338 954.201 136.277 953.553 132.893V131.557H962.389V132.849C962.094 133.798 961.858 135.609 961.682 138.281C961.476 140.982 961.372 143.075 961.372 144.559ZM980.06 131.646L988.895 131.557C994.226 131.557 998.35 132.359 1001.27 133.962C1004.15 135.594 1005.59 138.325 1005.59 142.155C1005.59 146.014 1004.43 149.101 1002.1 151.417C999.749 153.762 996.612 155.112 992.695 155.469L999.719 163.751C1002.75 167.283 1005.08 169.717 1006.7 171.053C1008.32 172.389 1009.79 173.265 1011.12 173.68V175.194H1000.29C999.704 174.304 998.276 172.404 996.008 169.495L984.875 155.869C984.404 155.869 984.065 155.84 983.859 155.78V164.463C983.859 168.53 984.183 171.647 984.831 173.814V175.194H973.831V173.814C974.655 171.647 975.068 168.738 975.068 165.086V142.689C975.068 138.533 974.714 135.268 974.007 132.893V131.557C975.156 131.617 977.174 131.646 980.06 131.646ZM996.45 143.268C996.45 140.359 995.831 138.355 994.594 137.257C993.328 136.158 991.355 135.609 988.675 135.609C986.024 135.609 984.448 135.624 983.948 135.654C983.889 136.901 983.859 142.303 983.859 151.862C984.802 151.981 985.965 152.04 987.349 152.04C990.648 152.04 992.989 151.298 994.374 149.814C995.758 148.359 996.45 146.177 996.45 143.268ZM1031.57 135.965C1029.89 135.965 1028.58 136.01 1027.64 136.099C1027.55 137.999 1027.51 142.674 1027.51 150.125L1043.41 149.814L1041.25 154.979H1040.05C1038.49 154.652 1036.2 154.489 1033.16 154.489C1030.13 154.489 1028.24 154.533 1027.51 154.623V157.918C1027.51 164.894 1027.57 169.064 1027.68 170.43C1028.63 170.519 1030.2 170.563 1032.41 170.563C1034.62 170.563 1037.27 170.37 1040.36 169.985C1043.46 169.628 1045.72 169.153 1047.17 168.56H1048.36L1047.17 175.194H1017.57V173.814C1018.24 170.816 1018.58 166.63 1018.58 161.257V145.494C1018.58 140.092 1018.24 135.891 1017.57 132.893V131.557L1046.33 131.335L1044.47 136.856H1043.28C1041.25 136.262 1037.34 135.965 1031.57 135.965Z" fill="black"/>
</g>
<defs>
<linearGradient id="paint0_linear" x1="-10.9933" y1="17.1564" x2="125.726" y2="80.4093" gradientUnits="userSpaceOnUse">
<stop stop-color="#0076DD"/>
<stop offset="1" stop-color="#E600E9"/>
</linearGradient>
<linearGradient id="paint1_linear" x1="6.30529" y1="49.7691" x2="89.6711" y2="88.3381" gradientUnits="userSpaceOnUse">
<stop stop-color="#0076DD"/>
<stop offset="1" stop-color="#E600E9"/>
</linearGradient>
<clipPath id="clip0">
<rect width="1264" height="196" fill="white"/>
</clipPath>
</defs>
</svg>
