<svg xmlns="http://www.w3.org/2000/svg" width="32" height="32" viewBox="0 0 32 32"><g transform="translate(1580.49 191.172)"><circle cx="-1558.5" cy="-165.638" r="2.5" fill="#9ecbdb"/><g stroke="#586597" transform="translate(-1580.244 -1211.663)"><path fill="#67bde1" fill-rule="evenodd" stroke="none" d="m 25.592298,1038.7427 c 1.142034,1.0215 3.907762,2.391 3.907762,2.391 l -16.519887,9.7286 c 0,0 0.356456,-3.0516 0.08462,-4.5392 -0.575644,-3.1503 -3.6724623,-5.6983 -3.561856,-8.901 0.28605,-2.6426 1.879344,-4.2269 3.747055,-5.3359 1.897974,-1.127 4.672213,-1.6605 6.577831,-0.7445 2.737832,1.613 3.655694,5.4603 5.764475,7.401 z"/><path fill="#97d3ff" fill-rule="evenodd" stroke="none" d="m -1554.6992,-1193.334 -12.5528,7.3223 c 0.024,0.1034 0.053,0.2059 0.072,0.3105 0.2633,1.441 -0.053,4.2506 -0.074,4.4317 l 16.5019,-9.625 c -0.014,-0.01 -2.7612,-1.3698 -3.9003,-2.3887 -0.017,-0.015 -0.03,-0.035 -0.047,-0.051 z" transform="translate(1580.244 2232.025)"/><path fill="none" stroke-linecap="round" stroke-linejoin="round" d="M22.865135 1034.8114c.808773 1.4078 1.565854 2.8926 2.727163 3.9313 1.142034 1.0215 3.907762 2.391 3.907762 2.391l-16.519887 9.7286c0 0 .356456-3.0516.08462-4.5392-.575644-3.1503-3.6724623-5.6983-3.561856-8.901.28605-2.6426 1.879344-4.2269 3.747055-5.3359 1.897974-1.127 4.672213-1.6605 6.577831-.7445.684038.3655 1.241172.881 1.728394 1.481M13.256157 1045.8586l11.987661-6.9928M13.246215 1031.8564l-1.242055-1.7381"/><path fill="none" stroke-linecap="round" stroke-linejoin="round" stroke-width="1.001" d="m -527.44802,931.10992 a 2.2627971,2.2400057 0 0 1 -1.53773,2.1219 2.2627971,2.2400057 0 0 1 -2.5232,-0.76207" transform="matrix(.87886 -.47709 .52327 .85217 0 0)"/><path fill="none" stroke-linecap="round" stroke-linejoin="round" d="M2.0071203 1035.1121l3.7357595.0001M20.505049 1025.6072l2.489899-2.4899M25.506752 1030.8599l3.736484-1.2551M4.0050493 1043.8572l2.4898997-2.4899M4.0050493 1025.6173l2.4898995 2.4899M12.251211 1022.1192l.497255 2.986"/></g></g></svg>